<?xml version="1.0" encoding="UTF-8" standalone="no"?> <svg id="Layer_1" data-name="Layer 1" xmlns="http://www.w3.org/2000/svg" viewBox="0 0 128 128"><defs><style>.cls-1{fill:#1d75b8;}.cls-2{fill:#2d3e50;}</style></defs><title>v</title><path class="cls-1" d="M126.01147,76.03554a30.97515,30.97515,0,0,0-6.42573-5.10293c-.60439-.33817-1.21355-.68156-1.8341-1.00846-.30683-.17457-.62742-.30763-.945-.45525l-.95914-.43535c-.32194-.14061-.64109-.3016-.97041-.42036l-.98972-.36381c-.66227-.24107-1.32921-.49167-2.00775-.67325a40.58173,40.58173,0,0,0-8.31064-1.58354c-.70151-.06242-1.40753-.13836-2.10551-.14965-.6993-.02182-1.40566-.06131-2.10517-.06531l-2.0968.02859c-.69979.01219-1.38837.071-2.08494.10885a67.352,67.352,0,0,0-8.20053,1.0675c-.68227.11933-1.32316.26582-1.98525.39935-.66164.13152-1.31012.28195-1.9547.43288-1.30123.29209-2.57034.61246-3.83826.93624-5.04738,1.29707-9.8631,2.73166-14.53152,3.84216-.58644.15376-1.16182.269-1.7426.40416l-.86893.19493-.86231.16991c-1.15085.25249-2.2885.43407-3.42416.62487l-1.69381.24609-1.681.18388-.42029.04854-.41644.02721-.83356.05629-.83925.05664-.87963.02674-1.76205.0555-1.7734.00142-.88832.00238-.8922-.02524-1.78853-.0455c-2.39235-.11793-4.8027-.25709-7.23572-.50863-4.86356-.45776-9.80537-1.1808-14.82379-1.937l-3.78115-.56963-3.8136-.566c-2.55314-.36467-5.1274-.72789-7.74571-.96213l-.00505-.00074a1.30086,1.30086,0,0,0-.78944,2.40772c2.24975,1.36584,4.54026,2.61346,6.87237,3.79592q3.4912,1.78242,7.1084,3.351a100.18929,100.18929,0,0,0,15.06617,5.20337c2.605.69105,5.28218,1.19647,7.98288,1.63449l2.04179.26945c.34082.044.68128.09143,1.02315.12943l1.03127.091,2.06579.17863,2.081.08757,1.04194.04173c.35264.00988.72118-.00237,1.08125-.00363l1.08685-.013.54373-.00744.53738-.02928c.716-.03924,1.43522-.08033,2.14872-.13663l2.1208-.2224c1.39815-.18478,2.79442-.39139,4.154-.65263l1.02438-.19482,1.00756-.219c.668-.15059,1.34948-.28626,2.00353-.45342,10.59532-2.5812,19.83254-6.7363,28.9461-8.80622a61.23546,61.23546,0,0,1,6.92354-1.22451,45.32326,45.32326,0,0,1,6.9887-.3362,42.48618,42.48618,0,0,1,7.06574.79343,54.46824,54.46824,0,0,1,7.12787,2.0924l.039.01432a1.12318,1.12318,0,0,0,1.19211-1.83257Z"/><path class="cls-2" d="M13.36344,29.99508A11.56268,11.56268,0,0,0,28.28693,46.92892L48.04669,69.35056l1.11-.00167,2.46566-.07679,1.86963-.12537,1.90873-.21069,1.90423-.28463c.95887-.16,1.86453-.31141,2.74271-.50408l.11257-.02346.79511-.15665.78018-.1749c.20867-.04835.41663-.09456.62459-.14077.342-.07584.66488-.14741.95366-.223l.117-.02915c2.64649-.62969,5.34168-1.36673,8.19518-2.14715,2.02107-.55267,4.11086-1.12429,6.24308-1.67222.69991-.17877,1.4248-.36195,2.16362-.54246L71.5799,53.44625l9.7388-8.58261,7.65548,8.68676a8.76217,8.76217,0,0,1,2.154,6.36275L91.0562,60.9453q1.86087-.2234,3.75185-.35635l.07833-.005c.19943-.0109.39815-.0237.59675-.03626l.11076-.007.02194-.31467a13.28966,13.28966,0,0,0-3.26673-9.64991L78.9355,35.35557a30.60673,30.60673,0,0,0-13.85568-8.985L41.1436,18.90981l-.2663-.30216L28.14072,12.18387a10.11231,10.11231,0,0,0-12.92987.36781L7.20117,19.61046a2.24348,2.24348,0,0,0-.1998,3.1655ZM51.747,26.92686,63.7412,30.66539a26.10668,26.10668,0,0,1,11.81938,7.66442l3.06721,3.48041L68.889,50.39284l-19.13346-21.711ZM18.0332,31.49023a7.07382,7.07382,0,0,1,9.98456.63161c.068.07717.133.1541.1963.23247a7.07439,7.07439,0,1,1-10.18087-.86409Z"/><path class="cls-1" d="M114.06392,83.64054a46.4273,46.4273,0,0,0-21.92342,9.172q-1.56259,1.14616-3.123,2.29693c-5.56927,4.10211-11.328,8.34366-17.2444,12.186-4.458,2.89538-9.24362,5.56939-14.58871,6.65075,1.4791.65077,3.02817,1.24258,4.65914,1.78119,7.91725,2.61589,15.06192,2.9438,21.8422,1.00289,5.46945-1.56526,9.9811-5.01189,14.04185-8.50341,5.09-4.37632,9.47484-9.67389,13.71526-14.79737l1.0522-1.27019a26.71731,26.71731,0,0,1,12.12681-8.508A39.12438,39.12438,0,0,0,114.06392,83.64054Z"/><path class="cls-1" d="M67.94619,98.42792q1.63147-1.79381,2.99491-3.61482c-4.8799,1.58894-10.03732,1.61513-15.02857,1.30843-6.624-.40678-13.30323-1.21343-19.76282-1.99361q-1.81034-.21834-3.62065-.43475a43.71155,43.71155,0,0,0-22.2043,2.63963,36.866,36.866,0,0,0-8.647,4.89606,25.136,25.136,0,0,1,13.86936,1.35154l1.44924.55275c5.84261,2.23141,11.88405,4.53849,18.07759,5.765,4.94119.97858,10.23117,1.71173,15.43658.46135C56.96376,107.80986,62.66708,104.23421,67.94619,98.42792Z"/></svg>