<?xml version="1.0" encoding="utf-8"?>
<!-- Generator: Adobe Illustrator 22.0.1, SVG Export Plug-In . SVG Version: 6.00 Build 0)  -->
<svg version="1.1" id="Nublado_copia_2" xmlns="http://www.w3.org/2000/svg" xmlns:xlink="http://www.w3.org/1999/xlink" x="0px"
	 y="0px" viewBox="0 0 512 512" style="enable-background:new 0 0 512 512;" xml:space="preserve">
<style type="text/css">
	.st0{fill:#FFBE00;}
	.st1{fill:#E95D0F;}
	.st2{fill:#C6C7C8;}
	.st3{fill:#9C9E9F;}
	.st4{fill:#28B4FF;}
</style>
<title>Icon_Partly_Cloudy_Rain</title>
<g>
	<circle class="st0" cx="208.3" cy="187.9" r="83.6"/>
	<path class="st0" d="M208.3,46.6L208.3,46.6c4.5,0,8.1,3.6,8.1,8.1v22.7c0,4.5-3.6,8.1-8.1,8.1h0c-4.5,0-8.1-3.6-8.1-8.1V54.7
		C200.2,50.3,203.8,46.6,208.3,46.6z"/>
	<path class="st1" d="M208.3,89.5c-6.7,0-12.1-5.4-12.1-12.1V54.7c0-6.7,5.4-12.1,12.1-12.1c6.7,0,12.1,5.4,12.1,12.1v22.7
		C220.4,84.1,214.9,89.5,208.3,89.5z M208.3,50.6c-2.3,0-4.1,1.8-4.1,4.1v22.7c0,2.3,1.8,4.1,4.1,4.1c2.3,0,4.1-1.8,4.1-4.1V54.7
		C212.4,52.5,210.5,50.6,208.3,50.6z"/>
	<path class="st0" d="M108.4,88L108.4,88c3.2-3.2,8.3-3.2,11.5,0l16,16c3.2,3.2,3.2,8.3,0,11.5v0c-3.2,3.2-8.3,3.2-11.5,0l-16-16
		C105.2,96.3,105.2,91.2,108.4,88z"/>
	<path class="st1" d="M130.1,121.9c-3.2,0-6.3-1.3-8.6-3.5l-16-16c-4.7-4.8-4.5-12.5,0.3-17.1c4.7-4.6,12.2-4.6,16.8,0l16,16
		c4.7,4.7,4.7,12.4,0,17.1l0,0C136.4,120.6,133.3,121.9,130.1,121.9z M114.1,89.6c-2.3,0-4.1,1.8-4.1,4.1c0,1.1,0.4,2.1,1.2,2.9
		l16,16c1.6,1.6,4.2,1.6,5.8,0c1.6-1.6,1.6-4.2,0-5.8l-16-16C116.3,90.1,115.2,89.6,114.1,89.6L114.1,89.6z"/>
	<path class="st0" d="M67,187.9L67,187.9c0-4.5,3.6-8.1,8.1-8.1h22.7c4.5,0,8.1,3.6,8.1,8.1l0,0c0,4.5-3.6,8.1-8.1,8.1H75.1
		C70.6,196,67,192.4,67,187.9z"/>
	<path class="st1" d="M97.8,200H75.1c-6.7,0-12.1-5.4-12.1-12.1c0-6.7,5.4-12.1,12.1-12.1h22.7c6.7,0,12.1,5.4,12.1,12.1
		C109.9,194.6,104.5,200,97.8,200z M75.1,183.8c-2.3,0-4.1,1.8-4.1,4.1c0,2.3,1.8,4.1,4.1,4.1h22.7c2.3,0,4.1-1.8,4.1-4.1
		c0-2.3-1.8-4.1-4.1-4.1H75.1z"/>
	<path class="st0" d="M108.4,287.8L108.4,287.8c-3.2-3.2-3.2-8.3,0-11.5l16-16c3.2-3.2,8.3-3.2,11.5,0v0c3.2,3.2,3.2,8.3,0,11.5
		l-16,16C116.7,291,111.5,291,108.4,287.8z"/>
	<path class="st1" d="M114.1,294.1c-6.7,0-12.1-5.4-12.1-12.1c0-3.2,1.3-6.3,3.6-8.6l16-16c4.7-4.7,12.4-4.7,17.1,0l0,0
		c4.7,4.7,4.7,12.4,0,17.1l-16,16C120.4,292.9,117.3,294.2,114.1,294.1z M130.1,261.9c-1.1,0-2.1,0.4-2.9,1.2l-16,16
		c-1.6,1.6-1.6,4.2,0,5.8c1.6,1.6,4.2,1.6,5.8,0l0,0l16-16c1.6-1.6,1.6-4.2,0-5.8C132.2,262.4,131.2,262,130.1,261.9L130.1,261.9z"
		/>
	<path class="st0" d="M308.2,88L308.2,88c3.2,3.2,3.2,8.3,0,11.5l-16,16c-3.2,3.2-8.3,3.2-11.5,0l0,0c-3.2-3.2-3.2-8.3,0-11.5l16-16
		C299.9,84.8,305,84.8,308.2,88z"/>
	<path class="st1" d="M286.4,121.9c-6.7,0-12.1-5.4-12.1-12.1c0-3.2,1.3-6.3,3.5-8.5l16-16c4.7-4.7,12.4-4.8,17.1,0
		c4.7,4.7,4.8,12.4,0,17.1l-16,16C292.7,120.6,289.6,121.9,286.4,121.9z M302.4,89.6c-1.1,0-2.1,0.4-2.9,1.2l-16,16
		c-1.6,1.6-1.6,4.2,0,5.8s4.2,1.6,5.8,0l16-16c1.6-1.6,1.6-4.2,0-5.8C304.5,90.1,303.5,89.6,302.4,89.6L302.4,89.6z"/>
	<path class="st1" d="M208.3,276.1c-48.7,0-88.3-39.5-88.3-88.2c0-48.7,39.5-88.3,88.2-88.3c14.6,0,28.9,3.6,41.7,10.5
		c1.9,1,2.7,3.5,1.6,5.4s-3.5,2.7-5.4,1.6l0,0c-39-20.9-87.6-6.2-108.5,32.9s-6.2,87.6,32.9,108.5s87.6,6.2,108.5-32.9
		c12.8-23.9,12.6-52.7-0.4-76.4c-1-2-0.2-4.4,1.8-5.4c1.9-0.9,4.1-0.3,5.2,1.5c23.5,42.7,7.9,96.4-34.8,119.9
		C237.7,272.4,223.1,276.2,208.3,276.1L208.3,276.1z"/>
	<path class="st1" d="M271.4,138.4c-4.1-5.2-8.7-9.8-13.9-13.8l4.9-6.3c5.7,4.4,10.8,9.5,15.3,15.2L271.4,138.4z"/>
	<rect x="91.8" y="125" transform="matrix(0.3827 -0.9239 0.9239 0.3827 -71.407 175.7344)" class="st1" width="8" height="32.7"/>
	
		<rect x="304.4" y="137.3" transform="matrix(0.9239 -0.3827 0.3827 0.9239 -29.6674 133.4985)" class="st1" width="32.7" height="8"/>
	
		<rect x="79.4" y="230.5" transform="matrix(0.9239 -0.3827 0.3827 0.9239 -82.4412 54.5041)" class="st1" width="32.7" height="8"/>
	
		<rect x="238.5" y="71.4" transform="matrix(0.3827 -0.9239 0.9239 0.3827 87.6418 282.0063)" class="st1" width="32.7" height="8"/>
	
		<rect x="157.7" y="59.1" transform="matrix(0.9239 -0.3827 0.3827 0.9239 -16.5556 67.6121)" class="st1" width="8" height="32.7"/>
	<path class="st2" d="M193.6,361.6c-26.8-1.1-47.7-23.7-46.6-50.5c1.1-26,22.5-46.6,48.5-46.6c0.4,0-0.6-7.6-0.6-11.7
		c0-21.5,17.4-38.9,38.8-38.9c7.3,0,14.5,2,20.7,5.9c6.8-35.1,40.8-58.1,75.9-51.4c23.6,4.6,42.8,21.8,49.7,44.8
		c40.8,5.3,69.6,42.6,64.4,83.4c-4.8,37.2-36.4,65-73.9,65L193.6,361.6z"/>
	<path class="st3" d="M426,243.6l6.3-4.9c-4-5-8.5-9.6-13.6-13.5l-4.9,6.3C418.3,235,422.4,239,426,243.6z"/>
	<path class="st3" d="M438.9,248.6c-1.1-1.9-3.5-2.6-5.5-1.5s-2.6,3.5-1.5,5.5c19.1,33.9,7.1,77-26.9,96.1
		c-10.6,5.9-22.5,9.1-34.6,9.1h-175c-24.6,0-44.6-20-44.6-44.6c0-24.6,20-44.6,44.6-44.6c11.8,0,23.1,4.7,31.5,13
		c1.6,1.5,4.1,1.5,5.7-0.1c1.5-1.5,1.5-4,0-5.5c-8.9-8.9-20.7-14.3-33.3-15.2c0-0.3,0-0.6-0.1-1c-0.2-2.3-0.4-5-0.4-6.9
		c0-19.3,15.6-34.9,34.9-34.9c6.5,0,12.9,1.8,18.5,5.3l5,3.1l1.1-5.7c6.3-33,38.2-54.6,71.2-48.2c22.2,4.3,40.1,20.4,46.7,42
		l0.8,2.5l2.6,0.3c8.8,1.1,17.3,3.9,25,8.1c2,1,4.4,0.2,5.4-1.8c0.9-1.9,0.3-4.1-1.5-5.2c-7.9-4.4-16.5-7.3-25.4-8.7
		c-4.5-13-12.7-24.3-23.7-32.6c-30.4-22.8-73.5-16.7-96.4,13.6c-5.2,6.9-9.1,14.8-11.3,23.1c-21.5-9.9-47-0.4-56.9,21.1
		c-2.6,5.6-3.9,11.7-3.9,17.9c0,2.2,0.3,5,0.5,7.6v0.3c-28.9,2.5-50.4,28-47.8,57c2.4,27,24.9,47.8,52,48h175
		c43.4,0,78.5-35.2,78.5-78.6C449,273.5,445.5,260.3,438.9,248.6z"/>
	<path class="st4" d="M314.3,431.9c-2.2,0-4-1.8-4-4V404c0-2.2,1.8-4,4-4s4,1.8,4,4v23.9C318.3,430.1,316.5,431.9,314.3,431.9z"/>
	<rect x="310.3" y="451.8" class="st4" width="8" height="17.5"/>
	<path class="st4" d="M219.4,431.9c-2.2,0-4-1.8-4-4V404c0-2.2,1.8-4,4-4s4,1.8,4,4v23.9C223.4,430.1,221.6,431.9,219.4,431.9z"/>
	<rect x="215.4" y="451.8" class="st4" width="8" height="17.5"/>
	<path class="st4" d="M361.8,469.4c-2.2,0-4-1.8-4-4v-23.9c0-2.2,1.8-4,4-4s4,1.8,4,4v23.9C365.8,467.6,364,469.4,361.8,469.4z"/>
	<rect x="357.8" y="400" class="st4" width="8" height="17.5"/>
	<path class="st4" d="M266.8,469.4c-2.2,0-4-1.8-4-4v-23.9c0-2.2,1.8-4,4-4s4,1.8,4,4v23.9C270.8,467.6,269,469.4,266.8,469.4z"/>
	<rect x="262.8" y="400" class="st4" width="8" height="17.5"/>
</g>
</svg>
